<svg width="28" height="12" viewBox="0 0 28 12" fill="none" xmlns="http://www.w3.org/2000/svg">
<path d="M0 6C0 2.68629 2.61167 0 5.83333 0H22.1667C25.3883 0 28 2.68629 28 6C28 9.31371 25.3883 12 22.1667 12H5.83333C2.61167 12 0 9.31371 0 6Z" fill="#F04900"/>
<path d="M8.51621 3.42188C8.95645 3.42188 9.30523 3.51922 9.56256 3.71391C9.82203 3.90859 9.95176 4.19844 9.95176 4.58344C9.95176 5.15219 9.69123 5.52187 9.17018 5.6925C9.47431 5.78219 9.70506 5.91891 9.86244 6.10266C10.0219 6.28641 10.1017 6.50844 10.1017 6.76875C10.1017 7.69625 9.53598 8.16 8.40456 8.16H6.3278V7.58906L6.81589 7.38562V4.22906L6.3278 4.02562V3.45469L7.83034 3.42188H8.51621ZM8.20996 5.35781C8.44816 5.35781 8.62893 5.30531 8.75228 5.20031C8.87776 5.09531 8.94049 4.94 8.94049 4.73438C8.94049 4.56812 8.88945 4.44234 8.78737 4.35703C8.68529 4.27172 8.5513 4.22906 8.38542 4.22906H7.83034V5.35781H8.20996ZM8.37266 7.35281C8.59809 7.35281 8.77036 7.3025 8.88945 7.20187C9.01068 7.10125 9.07129 6.95687 9.07129 6.76875C9.07129 6.52594 9.00111 6.34766 8.86074 6.23391C8.7225 6.12016 8.50558 6.06328 8.20996 6.06328H7.83034V7.35281H8.37266Z" fill="white"/>
<path d="M12.7367 7.72359C12.7367 7.73234 12.6804 7.78156 12.5676 7.87125C12.4549 7.96094 12.3199 8.04297 12.1625 8.11734C12.0051 8.18953 11.8435 8.22563 11.6776 8.22563C11.3586 8.22563 11.1087 8.13484 10.9279 7.95328C10.7493 7.76953 10.66 7.50922 10.66 7.17234C10.66 6.78734 10.7939 6.50625 11.0619 6.32906C11.3299 6.15188 11.7201 6.06328 12.2327 6.06328H12.6921V5.6925C12.6921 5.36438 12.524 5.20141 12.188 5.20359C12.0881 5.20359 11.9956 5.21125 11.9105 5.22656C11.8254 5.24187 11.7574 5.25828 11.7063 5.27578C11.6574 5.29109 11.6266 5.30094 11.6138 5.30531L11.5149 5.72859H10.9279L10.8833 4.73438C10.9215 4.72125 11.0151 4.69281 11.164 4.64906C11.315 4.60531 11.4947 4.56375 11.7031 4.52437C11.9137 4.485 12.1125 4.46531 12.2997 4.46531C12.6357 4.46531 12.9026 4.50906 13.1004 4.59656C13.2982 4.68187 13.4428 4.82188 13.5342 5.01656C13.6257 5.20906 13.6714 5.46828 13.6714 5.79422V7.45453L14.1627 7.57594V8.11406L12.8548 8.16L12.7367 7.72359ZM11.6074 7.07062C11.6074 7.20187 11.6404 7.3025 11.7063 7.3725C11.7744 7.44031 11.8701 7.47422 11.9934 7.47422C12.0976 7.47422 12.2008 7.44578 12.3029 7.38891C12.4049 7.32984 12.4911 7.26969 12.5613 7.20844C12.6314 7.145 12.675 7.10344 12.6921 7.08375V6.63422H12.3188C12.0657 6.63422 11.8839 6.66922 11.7733 6.73922C11.6627 6.80922 11.6074 6.91969 11.6074 7.07062Z" fill="white"/>
<path d="M15.9811 4.99359C15.9811 4.98484 16.0321 4.93344 16.1342 4.83938C16.2363 4.74531 16.3543 4.66 16.4883 4.58344C16.6244 4.50469 16.7584 4.46531 16.8902 4.46531C16.9944 4.46531 17.0923 4.47406 17.1837 4.49156C17.2752 4.50906 17.3464 4.52766 17.3975 4.54734C17.4506 4.56703 17.4836 4.57906 17.4964 4.58344L17.4453 5.87625H16.8583L16.7594 5.30531C16.6467 5.30531 16.5372 5.33375 16.4309 5.39062C16.3266 5.44531 16.2373 5.50656 16.1629 5.57437C16.0906 5.64 16.0544 5.675 16.0544 5.67937V7.45453L16.7084 7.62187V8.16H14.5519V7.62187L15.0751 7.45453V5.26922L14.5519 5.10187V4.56375L15.9236 4.53094L15.9811 4.99359Z" fill="white"/>
<path d="M17.6303 4.56375L19.1329 4.53094V6.85078C19.1329 7.03891 19.1627 7.17562 19.2222 7.26094C19.2839 7.34406 19.387 7.38562 19.5316 7.38562C19.6571 7.38562 19.7741 7.35938 19.8826 7.30687C19.991 7.25219 20.0825 7.19422 20.1569 7.13297C20.2313 7.06953 20.2686 7.03344 20.2686 7.02469V5.26922L19.7454 5.10187V4.56375L21.2479 4.53094V7.45453L21.7711 7.58906V8.11406L20.393 8.16L20.3292 7.69078C20.3292 7.69953 20.2686 7.75094 20.1473 7.845C20.0282 7.93906 19.8836 8.02656 19.7135 8.1075C19.5433 8.18625 19.3668 8.22563 19.1839 8.22563C18.8564 8.22563 18.6023 8.11953 18.4215 7.90734C18.2428 7.69516 18.1535 7.40094 18.1535 7.02469V5.26922L17.6303 5.10187V4.56375Z" fill="white"/>
</svg>
