<svg width="31" height="31" viewBox="0 0 31 31" fill="none" xmlns="http://www.w3.org/2000/svg">
<path d="M15.4992 0C24.0543 0 31 6.94574 31 15.4992C31 24.0543 24.0543 31 15.4992 31C6.94574 31 0 24.0543 0 15.4992C0 6.94574 6.94574 0 15.4992 0ZM15.4992 2.32558C8.22791 2.32558 2.32558 8.22791 2.32558 15.4992C2.32558 22.7705 8.22791 28.6744 15.4992 28.6744C22.7705 28.6744 28.6744 22.7705 28.6744 15.4992C28.6744 8.22791 22.7705 2.32558 15.4992 2.32558ZM15.4992 13.8372L19.7116 9.62326C19.938 9.3969 20.2372 9.28372 20.5349 9.28372C21.1612 9.28372 21.6977 9.7876 21.6977 10.4465C21.6977 10.7457 21.5845 11.0419 21.3581 11.2698L17.1457 15.4822L21.3736 19.7116C21.6016 19.9395 21.7147 20.2372 21.7147 20.5349C21.7147 21.1969 21.1736 21.6977 20.5519 21.6977C20.2543 21.6977 19.9566 21.5845 19.7302 21.3581L15.4992 17.1287L11.2698 21.3581C11.0434 21.5845 10.7457 21.6977 10.4481 21.6977C9.82636 21.6977 9.28372 21.1969 9.28372 20.5349C9.28372 20.2372 9.3969 19.9395 9.62481 19.7116L13.8543 15.4822L9.63411 11.262C9.40775 11.0341 9.29457 10.738 9.29457 10.4388C9.29457 9.77984 9.83101 9.27752 10.4574 9.27752C10.755 9.27752 11.0543 9.3907 11.2806 9.61705L15.4992 13.8372Z" fill="black"/>
</svg>
