<svg width="360" height="68" viewBox="0 0 360 68" fill="none" xmlns="http://www.w3.org/2000/svg">
<path d="M23.2745 57.9954C19.1368 57.9954 15.5939 57.3441 12.6458 56.0414C9.69769 54.6866 7.29266 52.8628 5.43071 50.5701C3.56875 48.2253 2.19814 45.5418 1.31889 42.5195C0.439629 39.4452 0 36.1885 0 32.7494C0 28.2161 0.775815 24.0736 2.32745 20.3218C3.87908 16.5701 6.36168 13.5739 9.77527 11.3333C13.1889 9.09272 17.6886 7.97241 23.2745 7.97241C26.6363 7.97241 29.4293 8.2069 31.6533 8.67586C33.8773 9.14483 35.9461 9.6659 37.8598 10.2391L37.0064 22.1977H33.1273L31.1878 14.5379C30.3085 14.1732 29.2482 13.9126 28.0069 13.7563C26.8173 13.6 25.7312 13.5218 24.7485 13.5218C21.9038 13.5218 19.5764 14.069 17.7662 15.1632C15.9559 16.2054 14.5595 17.6383 13.5768 19.4621C12.5941 21.2858 11.9217 23.3441 11.5596 25.6368C11.1976 27.9295 11.0166 30.3004 11.0166 32.7494C11.0166 35.0943 11.2235 37.413 11.6372 39.7057C12.051 41.9985 12.7492 44.1088 13.7319 46.0368C14.7146 47.9126 16.0852 49.4238 17.8437 50.5701C19.6023 51.6644 21.8004 52.2115 24.4382 52.2115C25.4726 52.2115 26.5587 52.1333 27.6966 51.977C28.8345 51.8207 29.9982 51.5602 31.1878 51.1954L33.1273 44.4736H37.2391L37.8598 55.4943C35.6358 56.2759 33.4118 56.8751 31.1878 57.292C28.9638 57.7609 26.326 57.9954 23.2745 57.9954Z" fill="black"/>
<path d="M42.1152 57.1356V53.2276L48.1666 51.6644V25.5586L42.1152 24.6988V20.9471L55.1489 17.8988H58.6401V21.4943C60.3469 20.3479 62.2606 19.436 64.3811 18.7586C66.5017 18.0291 68.4412 17.6644 70.1997 17.6644C70.5101 17.6644 70.898 17.6644 71.3635 17.6644C71.8807 17.6644 72.2427 17.6904 72.4496 17.7425L70.9756 31.7333H65.3121L63.6829 24.5425C62.8554 24.5425 61.9761 24.6467 61.0451 24.8552C60.1659 25.0636 59.3642 25.3762 58.6401 25.7931V51.6644L67.6396 53.2276V57.1356H42.1152Z" fill="black"/>
<path d="M93.3978 57.9172C88.8981 57.9172 85.2518 57.0054 82.4588 55.1816C79.6659 53.3579 77.6229 50.9609 76.3299 47.9908C75.0369 44.9686 74.3904 41.6598 74.3904 38.0644C74.3904 34.3126 75.011 30.9257 76.2523 27.9034C77.5453 24.8291 79.5883 22.4061 82.3813 20.6345C85.1742 18.8107 88.8464 17.8988 93.3978 17.8988C98.1044 17.8988 101.854 18.8107 104.647 20.6345C107.492 22.4061 109.535 24.8291 110.776 27.9034C112.069 30.9257 112.716 34.3126 112.716 38.0644C112.716 41.6598 112.069 44.9686 110.776 47.9908C109.483 50.9609 107.414 53.3579 104.57 55.1816C101.777 57.0054 98.0527 57.9172 93.3978 57.9172ZM93.7082 52.6023C95.8804 52.6023 97.5097 51.951 98.5958 50.6483C99.7337 49.3456 100.484 47.6 100.846 45.4115C101.259 43.1709 101.466 40.6697 101.466 37.908C101.466 35.0943 101.234 32.5931 100.768 30.4046C100.354 28.164 99.5526 26.4184 98.363 25.1678C97.1735 23.8651 95.4667 23.2138 93.2427 23.2138C91.1738 23.2138 89.5963 23.8651 88.5102 25.1678C87.4241 26.4184 86.6741 28.164 86.2603 30.4046C85.8466 32.5931 85.6397 35.0943 85.6397 37.908C85.6397 40.6697 85.8466 43.1709 86.2603 45.4115C86.7258 47.6 87.5275 49.3456 88.6654 50.6483C89.8549 51.951 91.5359 52.6023 93.7082 52.6023Z" fill="black"/>
<path d="M118.84 57.1356L117.134 53.5402L136.994 24.3862H124.814L122.875 31.3425H119.228L117.832 18.6805H148.244L150.028 22.354L130.09 51.5862H143.201L145.994 44.3954H149.873L149.02 57.1356H118.84Z" fill="black"/>
<path d="M152.159 68L173.184 2.57931H180.864L159.607 68H152.159Z" fill="black"/>
<path d="M198.008 57.9172L185.905 14.5379L180.397 12.6621V9.14483H201.965V12.6621L196.922 14.2253L203.982 46.7402L201.422 46.8184L209.412 14.9287L218.49 13.131L228.265 46.7402L225.782 46.8184L232.221 14.4598L226.791 12.6621V9.14483H243.859V12.5839L238.35 14.4598L228.575 56.9011L222.601 57.9172L211.818 21.3379L213.292 21.2598L203.982 56.9011L198.008 57.9172Z" fill="black"/>
<path d="M263.259 57.9172C258.759 57.9172 255.113 57.0054 252.32 55.1816C249.527 53.3579 247.484 50.9609 246.191 47.9908C244.898 44.9686 244.251 41.6598 244.251 38.0644C244.251 34.3126 244.872 30.9257 246.113 27.9034C247.406 24.8291 249.449 22.4061 252.242 20.6345C255.035 18.8107 258.707 17.8988 263.259 17.8988C267.966 17.8988 271.715 18.8107 274.508 20.6345C277.353 22.4061 279.396 24.8291 280.637 27.9034C281.93 30.9257 282.577 34.3126 282.577 38.0644C282.577 41.6598 281.93 44.9686 280.637 47.9908C279.344 50.9609 277.275 53.3579 274.431 55.1816C271.638 57.0054 267.914 57.9172 263.259 57.9172ZM263.569 52.6023C265.742 52.6023 267.371 51.951 268.457 50.6483C269.595 49.3456 270.345 47.6 270.707 45.4115C271.12 43.1709 271.327 40.6697 271.327 37.908C271.327 35.0943 271.095 32.5931 270.629 30.4046C270.215 28.164 269.414 26.4184 268.224 25.1678C267.035 23.8651 265.328 23.2138 263.104 23.2138C261.035 23.2138 259.457 23.8651 258.371 25.1678C257.285 26.4184 256.535 28.164 256.121 30.4046C255.708 32.5931 255.501 35.0943 255.501 37.908C255.501 40.6697 255.708 43.1709 256.121 45.4115C256.587 47.6 257.389 49.3456 258.526 50.6483C259.716 51.951 261.397 52.6023 263.569 52.6023Z" fill="black"/>
<path d="M286.452 57.1356V53.2276L292.503 51.6644V25.5586L286.452 24.6988V20.9471L299.485 17.8988H302.976V21.4943C304.683 20.3479 306.597 19.436 308.717 18.7586C310.838 18.0291 312.778 17.6644 314.536 17.6644C314.846 17.6644 315.234 17.6644 315.7 17.6644C316.217 17.6644 316.579 17.6904 316.786 17.7425L315.312 31.7333H309.648L308.019 24.5425C307.192 24.5425 306.312 24.6467 305.381 24.8552C304.502 25.0636 303.7 25.3762 302.976 25.7931V51.6644L311.976 53.2276V57.1356H286.452Z" fill="black"/>
<path d="M331.528 57.9172C328.631 57.9172 326.226 56.9793 324.313 55.1034C322.451 53.2276 321.054 50.7785 320.123 47.7563C319.192 44.7341 318.727 41.5034 318.727 38.0644C318.727 31.8115 320.175 26.8874 323.071 23.292C325.968 19.6965 330.002 17.8988 335.174 17.8988C336.622 17.8988 337.941 18.0552 339.131 18.3678C340.372 18.6805 341.38 19.0192 342.156 19.3839C342.932 19.6966 343.372 19.905 343.475 20.0092V7.65977L337.424 6.8V3.04827L350.535 0H353.949V50.6483L360 52.8368V56.1977C358.241 56.6667 356.69 57.0054 355.345 57.2138C354 57.4222 352.681 57.5264 351.388 57.5264C349.682 57.5264 348.078 57.1877 346.578 56.5103C345.078 55.7808 344.122 54.7387 343.708 53.3839C342.105 54.6866 340.268 55.7808 338.2 56.6667C336.182 57.5004 333.958 57.9172 331.528 57.9172ZM336.648 51.5862C338.044 51.5862 339.389 51.2996 340.682 50.7264C341.975 50.1533 342.906 49.554 343.475 48.9287V25.246C342.803 24.6207 341.872 24.1257 340.682 23.7609C339.544 23.3441 338.51 23.1356 337.579 23.1356C334.993 23.1356 333.079 24.4904 331.838 27.2C330.597 29.8575 329.976 33.4268 329.976 37.908C329.976 41.9203 330.493 45.2031 331.528 47.7563C332.562 50.3096 334.269 51.5862 336.648 51.5862Z" fill="black"/>
</svg>
