<svg width="135" height="18" viewBox="0 0 135 18" fill="none" xmlns="http://www.w3.org/2000/svg">
<path d="M122.419 6.1481L122.49 7.70366C122.916 7.03699 123.413 6.59255 123.981 6.29625C124.548 5.99995 125.258 5.85181 125.968 5.85181C126.606 5.85181 127.103 5.99995 127.6 6.29625C128.026 6.59255 128.31 7.11107 128.452 7.77773C128.594 7.48144 128.877 7.25921 129.09 6.96292C129.374 6.7407 129.658 6.51847 129.942 6.37033C130.226 6.22218 130.581 6.07403 130.865 5.99995C131.219 5.92588 131.503 5.85181 131.858 5.85181C132.284 5.85181 132.639 5.92588 132.994 5.99995C133.348 6.07403 133.703 6.29625 133.987 6.51847C134.271 6.7407 134.484 7.03699 134.697 7.40736C134.839 7.77773 134.981 8.22218 134.981 8.66662C134.981 9.03699 134.981 9.33329 134.91 9.70366C134.839 10.074 134.768 10.3703 134.697 10.7407L133.419 17.2592H130.652L132 10.2222C132.071 9.92588 132.071 9.70366 132.071 9.40736C132.071 9.03699 131.929 8.81477 131.716 8.59255C131.503 8.37033 131.219 8.22218 130.865 8.22218C130.51 8.22218 130.155 8.29625 129.871 8.51847C129.587 8.7407 129.303 8.96292 129.09 9.25921C128.877 9.55551 128.665 9.85181 128.594 10.2222C128.452 10.5925 128.31 10.9629 128.31 11.2592L127.174 17.2592H124.335L125.684 10.2222C125.755 9.92588 125.755 9.70366 125.755 9.40736C125.755 9.03699 125.613 8.81477 125.4 8.59255C125.187 8.37033 124.903 8.22218 124.548 8.22218C124.194 8.22218 123.839 8.29625 123.555 8.51847C123.271 8.7407 122.987 8.96292 122.774 9.25921C122.561 9.55551 122.348 9.85181 122.277 10.2222C122.135 10.5925 121.994 10.9629 121.994 11.2592L120.858 17.2592H118.09L120.29 6.07403H122.419V6.1481Z" fill="#E55225"/>
<path d="M7.38065 17.2593H0V16.5926H2.27097L5.18065 0.962977H3.19355V0.444458H10.5742V1.11112H8.23226L5.32258 16.7408H7.38065V17.2593ZM17.3871 17.2593H9.58065V16.5926H11.8516L7.09677 8.44446L14.8323 1.03705H12.4194V0.444458H18.0258V1.11112H15.9677L9.58065 7.25927L15.2581 16.6667H17.3871V17.2593Z" fill="#0A5388"/>
<path d="M17.6001 10.8889C17.6001 9.7037 17.813 8.51852 18.2388 7.33333C18.6646 6.14815 19.3033 5.03704 20.2259 3.92593C21.2195 2.59259 22.284 1.62963 23.4904 0.962963C24.6259 0.296296 25.9033 0 27.1807 0C28.884 0 30.3743 0.666666 31.4388 1.92593C32.5743 3.18518 33.142 4.81481 33.142 6.81481C33.142 7.92593 32.9291 9.11111 32.5033 10.2963C32.0065 11.5556 31.2969 12.6667 30.5162 13.7778C29.5227 15.1111 28.3872 16.0741 27.2517 16.7407C26.1162 17.4074 24.8388 17.7037 23.5614 17.7037C21.8582 17.7037 20.4388 17.037 19.3033 15.7778C18.1678 14.4444 17.6001 12.8889 17.6001 10.8889ZM26.7549 0.666667C25.7614 0.666667 24.9098 1.03704 24.2711 1.7037C23.5614 2.37037 22.9227 3.48148 22.4259 4.88889C21.9291 6.22222 21.5743 7.55556 21.3614 9.03704C21.0775 10.5185 20.9356 11.8519 20.9356 13.037C20.9356 14.3704 21.1485 15.4074 21.6453 16.0741C22.142 16.7407 22.8517 17.037 23.9162 17.037C24.9807 17.037 25.7614 16.6667 26.4711 16C27.1807 15.3333 27.8195 14.2222 28.3162 12.8148C28.813 11.5556 29.1678 10.1481 29.3807 8.66667C29.6646 7.18518 29.8065 5.85185 29.8065 4.66667C29.8065 3.33333 29.5936 2.2963 29.0969 1.62963C28.5291 0.962963 27.7485 0.666667 26.7549 0.666667Z" fill="#0A5388"/>
<path d="M38.1097 17.2593H33.2839V16.5926H35.271L38.1807 0.962977H36.1936V0.444458H42.0839L43.2904 11.4815H43.5033L48.8259 0.444458H54.5033V1.11112H52.3033L49.3226 16.7408H51.4517V17.4074H44.213V16.7408H46.271L49.0388 1.85187H48.7549L41.4452 17.2593H40.7355L39.1743 1.70372H38.8904L36.0517 16.5926H38.1097V17.2593Z" fill="#0A5388"/>
<path d="M60.2516 17.2593H53.6516V16.5926H55.2129L58.1226 0.962977H56.1355V0.444458H63.3032C65.0064 0.444458 66.3548 0.814828 67.2064 1.48149C68.129 2.14816 68.5548 3.1852 68.5548 4.51853C68.5548 5.48149 68.3419 6.29631 67.9161 7.03705C67.4903 7.77779 66.9226 8.29631 66.071 8.74075C65.5032 9.03705 64.8645 9.25927 64.0839 9.40742C63.3742 9.55557 62.1677 9.62964 60.4645 9.62964H59.6129L58.2645 16.7408H60.2516V17.2593ZM59.7548 8.81483H60.9613C61.8839 8.81483 62.5226 8.74075 62.9484 8.66668C63.3742 8.51853 63.729 8.37038 64.0129 8.07409C64.4387 7.62964 64.7935 7.11112 65.0064 6.37038C65.2194 5.62964 65.3613 4.8889 65.3613 4.07409C65.3613 2.96298 65.0774 2.22224 64.5806 1.77779C64.0839 1.33335 63.1613 1.11112 61.8839 1.11112H61.0323L59.7548 8.81483Z" fill="#0A5388"/>
<path d="M69.0513 17.2593H64.5803V16.5926H65.9287L76.0771 0H76.9287L77.2126 16.5926H79.4126V17.2593H72.1029V16.5926H74.3029L74.2319 12.0741H69.5481L66.7094 16.5926H69.0513V17.2593ZM74.3029 11.4815L74.161 4.66667L69.9739 11.4815H74.3029Z" fill="#0A5388"/>
<path d="M81.8259 17.2593H81.3291L81.9678 12.4444H82.7485C82.9614 13.9259 83.3872 15.037 84.0968 15.7778C84.8065 16.5185 85.6581 16.963 86.7936 16.963C87.7872 16.963 88.7097 16.5926 89.4194 15.9259C90.1291 15.2593 90.4839 14.4444 90.4839 13.4074C90.4839 12.8148 90.342 12.2963 89.9872 11.7778C89.6323 11.2593 89.2065 10.8889 88.6388 10.5926L86.5807 9.48148C85.2323 8.74074 84.3097 8.07407 83.8839 7.40741C83.4581 6.74074 83.2452 5.92593 83.2452 4.88889C83.2452 3.40741 83.671 2.22222 84.5227 1.33333C85.3743 0.444444 86.4388 0 87.8581 0C88.5678 0 89.2065 0.148148 89.7033 0.37037C90.2001 0.592593 90.6968 0.962963 91.1936 1.48148L92.4001 0.296296H92.7549L92.0452 4.81481H91.4065C91.2646 3.48148 90.8388 2.51852 90.271 1.77778C89.7033 1.03704 88.9227 0.740741 88.0001 0.740741C87.0775 0.740741 86.2968 1.03704 85.6581 1.55556C85.0194 2.07407 84.7356 2.74074 84.7356 3.48148C84.7356 3.92593 84.8775 4.37037 85.0904 4.66667C85.3033 4.96296 85.8001 5.33333 86.5807 5.7037L88.8517 6.88889C89.9872 7.48148 90.7678 8.14815 91.2646 8.96296C91.7614 9.77778 92.0452 10.7407 92.0452 11.8519C92.0452 13.5556 91.5485 14.963 90.5549 16.0741C89.5614 17.1111 88.213 17.7037 86.5807 17.7037C85.871 17.7037 85.2323 17.5556 84.7356 17.3333C84.1678 17.037 83.742 16.6667 83.3162 16.2222L81.8259 17.2593Z" fill="#0A5388"/>
<path fill-rule="evenodd" clip-rule="evenodd" d="M108.226 6.51821C108.155 7.25895 107.871 7.92561 107.8 8.66636C106.664 8.22191 105.6 7.85154 104.322 8.29598C102.619 8.96265 101.413 11.7034 101.768 13.7775C102.122 15.9997 105.387 15.4071 106.948 14.5182C106.806 15.333 106.593 16.0738 106.451 16.8886C105.245 17.2589 104.322 17.6293 102.903 17.4812C100.703 17.333 99.3546 15.9256 99.1417 13.9256C98.7159 9.70339 101.2 5.85154 105.316 5.77747C106.309 5.85154 107.303 6.14784 108.226 6.51821Z" fill="#E55225"/>
<path fill-rule="evenodd" clip-rule="evenodd" d="M113.832 5.92586C115.535 5.85179 117.097 6.51845 117.735 7.77771C118.729 9.77771 118.019 13.2592 116.884 14.9629C115.606 16.9629 112.484 18.3703 109.858 16.9629C106.877 15.3333 107.942 9.48142 110.142 7.2592C110.993 6.51846 112.342 5.99994 113.832 5.92586ZM110.78 11.4814C110.284 13.7036 110.78 15.9999 113.122 15.2592C114.542 14.8148 115.748 12.1481 115.535 9.92586C115.464 8.6666 114.613 7.99994 113.406 8.14808C111.987 8.44438 111.135 9.92586 110.78 11.4814Z" fill="#E55225"/>
<path d="M97.58 15.4814C97.58 16.6666 96.6574 17.6295 95.5219 17.6295C94.3865 17.6295 93.4639 16.6666 93.4639 15.4814C93.4639 14.2962 94.3865 13.3333 95.5219 13.3333C96.6574 13.3333 97.58 14.2962 97.58 15.4814Z" fill="#E55225"/>
</svg>
